<svg width="3171" height="1918" xmlns="http://www.w3.org/2000/svg" xmlns:xlink="http://www.w3.org/1999/xlink" xml:space="preserve" overflow="hidden"><g transform="translate(24 -258)"><text font-family="Arial,Arial_MSFontService,sans-serif" font-weight="400" font-size="912" transform="matrix(1 0 0 1 524.489 1420)">U</text><text fill="#7F7F7F" font-family="Arial,Arial_MSFontService,sans-serif" font-weight="700" font-size="912" transform="matrix(1 0 0 1 1183.34 1420)">Q</text><text font-family="Avenir Next LT Pro,Avenir Next LT Pro_MSFontService,sans-serif" font-weight="400" font-size="633" transform="matrix(1 0 0 1 1968.81 1420)">tils</text><path d="M1455 775 1492.38 699 1577.62 699 1615 775Z" fill="#7F7F7F" fill-rule="evenodd"/><path d="M1258.94 916.841 1231.92 835.666 1292.31 776.121 1373.1 804.279Z" fill="#7F7F7F" fill-rule="evenodd"/><path d="M1241 1169 1164 1131.13 1164 1046.87 1241 1009Z" fill="#7F7F7F" fill-rule="evenodd"/><path d="M1370.47 1379.82 1288.61 1404.67 1230.69 1342.71 1260.99 1262.71Z" fill="#7F7F7F" fill-rule="evenodd"/><path d="M1621 1409 1583.13 1486 1498.87 1486 1461 1409Z" fill="#7F7F7F" fill-rule="evenodd"/><path d="M1838 1018 1915 1055.87 1915 1140.13 1838 1178Z" fill="#7F7F7F" fill-rule="evenodd"/><path d="M1718.18 805.218 1800.77 782.91 1856.75 846.621 1824 925.656Z" fill="#7F7F7F" fill-rule="evenodd"/></g></svg>
