<svg xmlns="http://www.w3.org/2000/svg" xmlns:xlink="http://www.w3.org/1999/xlink" width="624" height="173pt" viewBox="0 0 468 173"><clipPath id="a"><path transform="matrix(1 0 0 -1 -130 388)" d="M0 0h960v540H0z"/></clipPath><g clip-path="url(#a)"><g data-name="Artifact"><clipPath id="b"><path transform="matrix(1 0 0 -1 -130 388)" d="M0 0h960v540H0z" fill-rule="evenodd"/></clipPath><g clip-path="url(#b)"><path d="M-130 388h960v-540h-960z" fill="#fff" fill-rule="evenodd"/></g></g><g data-name="Span"><clipPath id="c"><path transform="matrix(1 0 0 -1 -130 388)" d="M0 0h960v540H0z" fill-rule="evenodd"/></clipPath><g clip-path="url(#c)"><symbol id="d"><path d="M.467.752V.24C.467.142.396.082.279.082A.223.223 0 0 0 .146.12C.11.148.093.185.093.24v.512H0V.24C0 .092.106 0 .279 0 .45 0 .56.094.56.24v.512H.467z"/></symbol><use xlink:href="#d" transform="matrix(199.01 0 0 -199.01 1.376 162.397)"/></g><clipPath id="e"><path transform="matrix(1 0 0 -1 -130 388)" d="M0 0h960v540H0z" fill-rule="evenodd"/></clipPath><g clip-path="url(#e)"><symbol id="f"><path d="M.622.157c.049.06.08.16.08.258C.702.522.664.625.6.694a.321.321 0 0 1-.249.101.321.321 0 0 1-.249-.101A.412.412 0 0 1 0 .413C0 .304.038.201.102.132A.321.321 0 0 1 .351.031c.076 0 .131.015.189.05L.626 0l.076.081-.08.076M.437.332.361.251.438.178A.203.203 0 0 0 .35.159c-.12 0-.2.101-.2.254 0 .154.079.254.201.254.122 0 .201-.1.201-.255A.354.354 0 0 0 .519.254L.437.332z"/></symbol><use xlink:href="#f" transform="matrix(199.01 0 0 -199.01 136.657 168.567)" fill="#919191"/></g><clipPath id="g"><path transform="matrix(1 0 0 -1 -130 388)" d="M0 0h960v540H0z" fill-rule="evenodd"/></clipPath><g clip-path="url(#g)"><symbol id="h"><path d="M.097.125v.292H0v.057h.097v.132h.068V.474h.132V.417H.165V.144C.165.126.167.112.17.101A.068.068 0 0 1 .185.074.056.056 0 0 1 .207.061a.11.11 0 0 1 .058 0c.01.003.02.007.029.012l.003-.06A.195.195 0 0 0 .217 0a.177.177 0 0 0-.04.005.1.1 0 0 0-.039.019.107.107 0 0 0-.03.038.15.15 0 0 0-.01.063z"/></symbol><symbol id="i"><path d="M0 .648c0 .014.005.025.015.034.01.01.02.014.033.014A.047.047 0 0 0 .08.682.043.043 0 0 0 .096.648.045.045 0 0 0 .08.613.048.048 0 0 0 0 .648m.014-.18h.068V0H.014v.468z"/></symbol><symbol id="j"><path d="M0 .756h.068V0H0v.756z"/></symbol><symbol id="k"><path d="m0 .091.054.04A.146.146 0 0 1 .107.08.148.148 0 0 1 .184.06c.015 0 .029 0 .042.003a.1.1 0 0 1 .035.014.074.074 0 0 1 .033.064c0 .025-.012.043-.036.056A.444.444 0 0 1 .156.23.884.884 0 0 0 .11.243a.148.148 0 0 0-.043.022A.124.124 0 0 0 .035.3a.109.109 0 0 0-.013.055.12.12 0 0 0 .051.103C.09.471.107.48.126.484c.02.005.041.008.063.008A.217.217 0 0 0 .284.47.152.152 0 0 0 .353.408L.301.37a.13.13 0 0 1-.115.066A.17.17 0 0 1 .15.431.095.095 0 0 1 .118.418.072.072 0 0 1 .095.395.062.062 0 0 1 .087.362c0-.022.009-.039.027-.05a.274.274 0 0 1 .085-.03.283.283 0 0 0 .122-.05.107.107 0 0 0 .04-.087.131.131 0 0 0-.056-.112.16.16 0 0 0-.057-.025.259.259 0 0 0-.166.014.193.193 0 0 0-.082.07z"/></symbol><use xlink:href="#h" transform="matrix(138.02 0 0 -138.02 300.14 158.629)"/><use xlink:href="#i" transform="matrix(138.02 0 0 -138.02 354 157.82)"/><use xlink:href="#j" transform="matrix(138.02 0 0 -138.02 390.527 157.82)"/><use xlink:href="#k" transform="matrix(138.02 0 0 -138.02 417.895 159.505)"/></g></g><path d="M187.46 17.17 195.7.42h18.5l8.24 16.75z" fill="#919191" fill-rule="evenodd" data-name="P"/><g data-name="P"><clipPath id="l"><path transform="matrix(1 0 0 -1 -130 388)" d="M0 540h960V0H0" fill-rule="evenodd"/></clipPath><g clip-path="url(#l)"><path d="m144.68 48.04-5.9-17.71 13.18-12.99 17.62 6.14z" fill="#919191" fill-rule="evenodd"/></g></g><g data-name="P"><clipPath id="m"><path transform="matrix(1 0 0 -1 -130 388)" d="M0 540h960V0H0" fill-rule="evenodd"/></clipPath><g clip-path="url(#m)"><path d="m140.73 103.08-16.75-8.23V76.34l16.75-8.23z" fill="#919191" fill-rule="evenodd"/></g></g><g data-name="P"><clipPath id="n"><path transform="matrix(1 0 0 -1 -130 388)" d="M0 540h960V0H0" fill-rule="evenodd"/></clipPath><g clip-path="url(#n)"><path d="m169.01 149.05-17.86 5.42-12.64-13.51 6.62-17.46z" fill="#919191" fill-rule="evenodd"/></g></g><path d="m223.64 155.52-8.24 16.75h-18.5l-8.24-16.75z" fill="#919191" fill-rule="evenodd" data-name="P"/><g data-name="P"><clipPath id="o"><path transform="matrix(1 0 0 -1 -130 388)" d="M0 540h960V0H0" fill-rule="evenodd"/></clipPath><g clip-path="url(#o)"><path d="m270.98 70.01 16.75 8.23v18.51l-16.75 8.23z" fill="#919191" fill-rule="evenodd"/></g></g><g data-name="P"><clipPath id="p"><path transform="matrix(1 0 0 -1 -130 388)" d="M0 540h960V0H0" fill-rule="evenodd"/></clipPath><g clip-path="url(#p)"><path d="m244.88 23.68 18.02-4.86 12.21 13.9-7.15 17.24z" fill="#919191" fill-rule="evenodd"/></g></g></g></svg>
